<svg width="27" height="27" viewBox="0 0 27 27" fill="none" xmlns="http://www.w3.org/2000/svg">
<path d="M13.8859 2.49997C11.7244 2.49997 9.61146 3.14092 7.81426 4.34177C6.01707 5.54261 4.61633 7.24942 3.78917 9.24636C2.96201 11.2433 2.74559 13.4407 3.16727 15.5606C3.58895 17.6805 4.6298 19.6278 6.15818 21.1562C7.68657 22.6846 9.63386 23.7254 11.7538 24.1471C13.8737 24.5688 16.0711 24.3524 18.068 23.5252C20.065 22.6981 21.7718 21.2973 22.9726 19.5001C24.1735 17.7029 24.8144 15.59 24.8144 13.4285C24.8144 11.9934 24.5317 10.5723 23.9825 9.24636C23.4333 7.92044 22.6283 6.71569 21.6135 5.70087C20.5987 4.68606 19.394 3.88107 18.068 3.33186C16.7421 2.78265 15.321 2.49997 13.8859 2.49997ZM13.8859 4.68568C16.1314 4.68479 18.2898 5.55443 19.9075 7.11183C18.2376 8.09125 16.4681 8.8899 14.629 9.49425C13.7137 7.91707 12.6643 6.42162 11.4925 5.02447C12.2706 4.80043 13.0762 4.6864 13.8859 4.68568ZM9.39421 5.94247C10.5392 7.25226 11.5668 8.66018 12.4651 10.15C10.32 10.6826 8.1183 10.9542 5.90799 10.9587H5.51457C6.13444 8.86 7.5188 7.07009 9.39421 5.94247ZM7.32871 19.2316C5.90663 17.6347 5.12778 15.5668 5.14299 13.4285V13.1116H5.88614C8.47334 13.0885 11.0459 12.721 13.5361 12.0188C13.8859 12.6854 14.2137 13.3739 14.5306 14.0843C12.8274 14.6847 11.2411 15.5758 9.84228 16.718L9.51442 16.9803C8.73534 17.68 8.00507 18.4322 7.32871 19.2316ZM13.8859 22.1714C12.1439 22.1753 10.4414 21.6534 9.00078 20.6742C9.53283 20.0639 10.1022 19.4872 10.7056 18.9475L11.0554 18.6524C12.3484 17.5649 13.8301 16.724 15.4268 16.1716C16.084 17.9486 16.5956 19.776 16.9568 21.6359C15.973 21.9951 14.9332 22.1764 13.8859 22.1714ZM18.9458 20.543C18.5882 18.8891 18.1209 17.2608 17.5469 15.6689H17.9185C17.9616 15.6583 18.0066 15.6583 18.0496 15.6689H18.8037C19.9538 15.6722 21.0952 15.868 22.1806 16.2481C21.5843 17.9861 20.4516 19.49 18.9458 20.543ZM18.8037 13.4285H18.1261C17.9846 13.4107 17.8414 13.4107 17.6999 13.4285C17.4029 13.4468 17.1073 13.4833 16.8147 13.5378H16.7054C16.3885 12.8056 16.0606 12.0953 15.7 11.3521C17.6569 10.6801 19.5364 9.80079 21.3064 8.72925C22.1844 10.1384 22.6431 11.7683 22.6287 13.4285V13.9859C21.3902 13.6036 20.0998 13.4156 18.8037 13.4285Z" fill="#111111"/>
</svg>
