<svg width="27" height="27" viewBox="0 0 27 27" fill="none" xmlns="http://www.w3.org/2000/svg">
<path d="M19.6646 6.28126C19.4052 6.28126 19.1516 6.35817 18.936 6.50227C18.7203 6.64637 18.5522 6.85119 18.453 7.09082C18.3537 7.33045 18.3277 7.59414 18.3783 7.84853C18.4289 8.10292 18.5538 8.3366 18.7373 8.52C18.9207 8.70341 19.1543 8.82831 19.4087 8.87891C19.6631 8.92951 19.9268 8.90354 20.1664 8.80429C20.4061 8.70503 20.6109 8.53694 20.755 8.32127C20.8991 8.10561 20.976 7.85206 20.976 7.59268C20.976 7.24487 20.8378 6.9113 20.5919 6.66536C20.346 6.41942 20.0124 6.28126 19.6646 6.28126ZM24.6917 8.92597C24.6705 8.01922 24.5006 7.1221 24.189 6.27033C23.9111 5.54154 23.4786 4.88161 22.9213 4.33597C22.3801 3.7758 21.7187 3.34603 20.9869 3.07918C20.1374 2.75806 19.2393 2.58435 18.3313 2.56554C17.1729 2.49997 16.8013 2.49997 13.8287 2.49997C10.8561 2.49997 10.4846 2.49997 9.32615 2.56554C8.41815 2.58435 7.52003 2.75806 6.6705 3.07918C5.94012 3.34874 5.27922 3.77813 4.73615 4.33597C4.17598 4.87713 3.74621 5.53859 3.47936 6.27033C3.15824 7.11985 2.98453 8.01797 2.96572 8.92597C2.90015 10.0844 2.90015 10.456 2.90015 13.4285C2.90015 16.4011 2.90015 16.7727 2.96572 17.9311C2.98453 18.8391 3.15824 19.7372 3.47936 20.5868C3.74621 21.3185 4.17598 21.98 4.73615 22.5211C5.27922 23.0789 5.94012 23.5083 6.6705 23.7779C7.52003 24.099 8.41815 24.2727 9.32615 24.2915C10.4846 24.3571 10.8561 24.3571 13.8287 24.3571C16.8013 24.3571 17.1729 24.3571 18.3313 24.2915C19.2393 24.2727 20.1374 24.099 20.9869 23.7779C21.7187 23.511 22.3801 23.0813 22.9213 22.5211C23.4811 21.9775 23.914 21.317 24.189 20.5868C24.5006 19.735 24.6705 18.8379 24.6917 17.9311C24.6917 16.7727 24.7573 16.4011 24.7573 13.4285C24.7573 10.456 24.7573 10.0844 24.6917 8.92597ZM22.7246 17.8C22.7166 18.4937 22.591 19.181 22.353 19.8327C22.1785 20.3083 21.8982 20.738 21.5334 21.0895C21.1789 21.4507 20.75 21.7304 20.2766 21.9091C19.6249 22.1471 18.9376 22.2727 18.2439 22.2807C17.151 22.3353 16.7466 22.3463 13.8724 22.3463C10.9982 22.3463 10.5939 22.3463 9.501 22.2807C8.78069 22.2942 8.06345 22.1833 7.38086 21.9528C6.92818 21.7649 6.51899 21.4859 6.17872 21.1332C5.81599 20.7821 5.53923 20.352 5.37 19.8764C5.10319 19.2154 4.9552 18.5124 4.93286 17.8C4.93286 16.7071 4.86729 16.3028 4.86729 13.4285C4.86729 10.5543 4.86729 10.15 4.93286 9.05711C4.93776 8.34791 5.06723 7.64508 5.31536 6.98068C5.50776 6.5194 5.80306 6.10821 6.17872 5.77854C6.51074 5.40278 6.92108 5.10435 7.38086 4.90425C8.04701 4.66387 8.74911 4.53823 9.45729 4.53268C10.5501 4.53268 10.9545 4.46711 13.8287 4.46711C16.7029 4.46711 17.1073 4.46711 18.2001 4.53268C18.8939 4.54064 19.5812 4.66628 20.2329 4.90425C20.7295 5.08857 21.1752 5.38822 21.5334 5.77854C21.8915 6.11424 22.1713 6.52467 22.353 6.98068C22.5959 7.64616 22.7216 8.3487 22.7246 9.05711C22.7792 10.15 22.7901 10.5543 22.7901 13.4285C22.7901 16.3028 22.7792 16.7071 22.7246 17.8ZM13.8287 7.82218C12.7204 7.82434 11.6375 8.15499 10.717 8.77233C9.79645 9.38968 9.07957 10.266 8.65692 11.2906C8.23426 12.3153 8.12479 13.4422 8.34235 14.529C8.55991 15.6158 9.09472 16.6137 9.87922 17.3967C10.6637 18.1797 11.6627 18.7125 12.7499 18.928C13.8371 19.1434 14.9638 19.0317 15.9876 18.6071C17.0114 18.1824 17.8864 17.4638 18.5019 16.5421C19.1175 15.6204 19.446 14.5369 19.446 13.4285C19.4474 12.691 19.3031 11.9604 19.0211 11.2788C18.7392 10.5973 18.3253 9.97818 17.8033 9.45715C17.2813 8.93612 16.6613 8.52345 15.9792 8.24286C15.2971 7.96227 14.5663 7.8193 13.8287 7.82218ZM13.8287 17.0678C13.1089 17.0678 12.4053 16.8543 11.8069 16.4544C11.2084 16.0546 10.742 15.4862 10.4665 14.8212C10.1911 14.1562 10.119 13.4245 10.2594 12.7186C10.3998 12.0126 10.7465 11.3642 11.2554 10.8552C11.7644 10.3463 12.4128 9.99967 13.1187 9.85925C13.8247 9.71883 14.5564 9.7909 15.2214 10.0663C15.8864 10.3418 16.4547 10.8082 16.8546 11.4067C17.2545 12.0052 17.4679 12.7088 17.4679 13.4285C17.4679 13.9064 17.3738 14.3797 17.1909 14.8212C17.008 15.2627 16.74 15.6639 16.402 16.0019C16.0641 16.3398 15.6629 16.6078 15.2214 16.7907C14.7799 16.9736 14.3066 17.0678 13.8287 17.0678Z" fill="#111111"/>
</svg>
