<svg width="27" height="27" viewBox="0 0 27 27" fill="none" xmlns="http://www.w3.org/2000/svg">
<path d="M25.3545 4.6311C25.3544 4.4382 25.3033 4.24875 25.2064 4.08199C25.1094 3.91524 24.9701 3.77711 24.8025 3.68165C24.6349 3.58618 24.445 3.53679 24.2521 3.53847C24.0592 3.54015 23.8702 3.59286 23.7043 3.69124C23.0643 4.07244 22.3753 4.36438 21.6562 4.55897C20.63 3.67842 19.3212 3.19662 17.9689 3.20164C16.4856 3.20342 15.0611 3.78154 13.9961 4.81395C12.931 5.84636 12.3089 7.25225 12.2609 8.73477C9.33624 8.26848 6.68549 6.74198 4.81422 4.4464C4.70147 4.30976 4.55754 4.20221 4.39455 4.13279C4.23157 4.06338 4.05429 4.03413 3.87764 4.04751C3.70104 4.06213 3.53064 4.11951 3.38118 4.21472C3.23171 4.30992 3.10766 4.44007 3.01975 4.59394C2.56897 5.38068 2.31009 6.26265 2.26414 7.16822C2.21819 8.07379 2.38645 8.97744 2.75528 9.80577L2.75309 9.80687C2.58696 9.90895 2.44986 10.052 2.35494 10.2223C2.26001 10.3927 2.21046 10.5845 2.21104 10.7795C2.20928 10.9399 2.21914 11.1003 2.24054 11.2593C2.35215 12.6341 2.96143 13.9211 3.95414 14.8788C3.88678 15.0072 3.8457 15.1478 3.83332 15.2923C3.82093 15.4368 3.83749 15.5823 3.88201 15.7203C4.31476 17.0691 5.23525 18.2078 6.46334 18.9136C5.21549 19.3961 3.86813 19.5642 2.53999 19.4032C2.29428 19.3727 2.04548 19.4265 1.83434 19.5558C1.62319 19.6851 1.46222 19.8823 1.37778 20.115C1.29333 20.3478 1.29043 20.6023 1.36954 20.8369C1.44866 21.0716 1.60509 21.2724 1.81324 21.4065C4.09753 22.8775 6.75719 23.6594 9.47416 23.6588C12.5552 23.6935 15.5613 22.709 18.0249 20.8585C20.4886 19.008 22.2716 16.3951 23.0966 13.4264C23.4824 12.1333 23.6793 10.7913 23.6813 9.44185L23.6802 9.22328C24.2509 8.60779 24.6929 7.88456 24.9804 7.09601C25.2679 6.30745 25.3951 5.46944 25.3545 4.6311ZM21.7415 8.14135C21.5608 8.3547 21.4692 8.62944 21.4858 8.90854C21.4967 9.08886 21.4956 9.27027 21.4956 9.44185C21.4933 10.5819 21.3262 11.7156 20.9994 12.8079C20.3259 15.3341 18.824 17.5613 16.7343 19.1326C14.6447 20.7039 12.0881 21.5284 9.47416 21.4742C8.53554 21.4743 7.60017 21.3639 6.68738 21.1453C7.85161 20.7698 8.94015 20.1911 9.90256 19.436C10.08 19.2965 10.2099 19.1054 10.2744 18.8891C10.3389 18.6728 10.3348 18.4418 10.2627 18.2278C10.1906 18.0139 10.054 17.8276 9.87174 17.6944C9.68944 17.5613 9.47038 17.4878 9.24466 17.4842C8.3362 17.47 7.46873 17.1036 6.82508 16.4624C6.98828 16.4318 7.15039 16.3935 7.3114 16.3476C7.54748 16.2805 7.7541 16.1359 7.89798 15.937C8.04185 15.7382 8.11459 15.4967 8.1045 15.2515C8.0944 15.0062 8.00205 14.7715 7.84232 14.5852C7.68259 14.3988 7.46477 14.2717 7.22397 14.2242C6.69666 14.12 6.20047 13.8957 5.774 13.5685C5.34753 13.2414 5.00226 12.8202 4.76504 12.3379C4.96258 12.3649 5.16138 12.3817 5.36065 12.3882C5.59745 12.3921 5.82934 12.3205 6.0227 12.1837C6.21605 12.0469 6.36082 11.8521 6.43602 11.6276C6.5082 11.4011 6.50458 11.1572 6.42569 10.933C6.34681 10.7088 6.19696 10.5164 5.99888 10.385C5.51795 10.0649 5.12394 9.63042 4.85216 9.1206C4.58037 8.61079 4.43929 8.04151 4.44156 7.46378C4.44156 7.39165 4.44374 7.31843 4.44811 7.2474C6.89771 9.53216 10.0751 10.879 13.4205 11.0505C13.5894 11.0569 13.7575 11.0249 13.9122 10.9567C14.0669 10.8885 14.2041 10.7861 14.3133 10.6571C14.4216 10.5273 14.4982 10.3742 14.5373 10.2098C14.5763 10.0454 14.5767 9.87419 14.5385 9.7096C14.4759 9.44864 14.444 9.18127 14.4434 8.91291C14.4445 7.97823 14.8164 7.08216 15.4773 6.42124C16.1382 5.76032 17.0343 5.38851 17.9689 5.38735C18.45 5.38593 18.926 5.48426 19.3671 5.67612C19.8082 5.86798 20.2048 6.14922 20.5317 6.50207C20.6577 6.63771 20.8164 6.73885 20.9926 6.79586C21.1688 6.85286 21.3566 6.86384 21.5382 6.82774C21.9872 6.74047 22.4297 6.6229 22.8628 6.47584C22.5675 7.07999 22.1902 7.64046 21.7415 8.14135Z" fill="#111111"/>
</svg>
