<svg width="27" height="27" viewBox="0 0 27 27" fill="none" xmlns="http://www.w3.org/2000/svg">
<path d="M17.2888 13.2242C16.8509 12.943 16.3756 12.7248 15.8769 12.5761C15.5709 12.4832 15.2321 12.3925 14.8824 12.3062C14.5764 12.2209 14.2135 12.1335 13.7655 12.0352C13.2308 11.9231 12.706 11.7681 12.1961 11.5718C11.9334 11.4697 11.7015 11.3014 11.5229 11.0833C11.3923 10.9048 11.3302 10.6852 11.3481 10.4647C11.3477 10.2283 11.4265 9.99859 11.5721 9.81229C11.7758 9.57368 12.0401 9.39436 12.3371 9.29318C12.8367 9.12153 13.3631 9.04156 13.8911 9.05713C14.2997 9.05035 14.707 9.10412 15.0998 9.21668C15.3604 9.28998 15.6057 9.40915 15.8244 9.56858C15.9658 9.66951 16.0864 9.79679 16.1796 9.94343C16.2471 10.0708 16.3391 10.1835 16.4503 10.2752C16.5615 10.3668 16.6898 10.4356 16.8277 10.4775C16.9656 10.5194 17.1104 10.5336 17.2538 10.5192C17.3972 10.5049 17.5364 10.4624 17.6633 10.3941C17.7902 10.3257 17.9023 10.233 17.9933 10.1212C18.0842 10.0093 18.1521 9.88064 18.193 9.74246C18.234 9.60428 18.2472 9.45936 18.232 9.31605C18.2167 9.17273 18.1733 9.03385 18.1041 8.9074C17.8737 8.49979 17.5624 8.14352 17.1894 7.86045C16.7584 7.52939 16.2696 7.28146 15.7479 7.12933C15.1457 6.9514 14.5202 6.86447 13.8922 6.87141C13.094 6.85423 12.2994 6.98389 11.5481 7.25391C10.8685 7.50128 10.2716 7.93353 9.82462 8.50196C9.39647 9.06716 9.16468 9.75676 9.16454 10.4658C9.14681 11.1717 9.37041 11.8626 9.7984 12.4242C10.2116 12.9446 10.7532 13.3484 11.3699 13.5958C11.8359 13.7751 12.313 13.924 12.7983 14.0416C12.807 14.0449 12.8136 14.0526 12.8223 14.0548C13.0322 14.1181 13.3666 14.2023 13.8496 14.3061C14.0387 14.3476 14.2157 14.3925 14.3928 14.4373C14.4103 14.4416 14.4354 14.4471 14.4518 14.4526L14.4715 14.4547C14.7425 14.5247 15.0037 14.5957 15.243 14.6689C15.537 14.755 15.8177 14.8815 16.0769 15.0449C16.2385 15.1464 16.3743 15.2841 16.4736 15.4471C16.5697 15.6459 16.614 15.8658 16.6025 16.0864C16.6177 16.3719 16.5352 16.654 16.3687 16.8864C16.1438 17.179 15.8395 17.4009 15.4922 17.5257C14.9744 17.7255 14.4218 17.8192 13.8671 17.8011C13.2256 17.8257 12.5876 17.6968 12.006 17.4251C11.7373 17.2821 11.5066 17.0772 11.3328 16.8273C11.2108 16.6675 11.1345 16.4775 11.112 16.2776C11.112 15.9878 10.9969 15.7098 10.7919 15.5049C10.587 15.2999 10.309 15.1848 10.0192 15.1848C9.72931 15.1848 9.45134 15.2999 9.24639 15.5049C9.04144 15.7098 8.9263 15.9878 8.9263 16.2776C8.94431 16.9225 9.15604 17.547 9.53392 18.0699C9.91158 18.6138 10.4146 19.0587 11.0005 19.3671C11.892 19.8021 12.8756 20.0147 13.8671 19.9868C14.7097 20.0072 15.5476 19.8566 16.3304 19.5442C17.058 19.265 17.6898 18.782 18.15 18.153C18.5875 17.5402 18.8117 16.8007 18.7882 16.0481C18.7984 15.4647 18.6572 14.8887 18.3784 14.3761C18.1092 13.9133 17.7362 13.5194 17.2888 13.2253V13.2242ZM25.1804 15.2766C25.475 13.4806 25.3378 11.6402 24.7802 9.90769C24.2226 8.17519 23.2605 6.60034 21.9735 5.31339C20.6866 4.02643 19.1117 3.06435 17.3792 2.50671C15.6467 1.94908 13.8064 1.81191 12.0103 2.10656C10.6843 1.47075 9.19356 1.26225 7.74394 1.50982C6.29433 1.7574 4.95731 2.44885 3.91743 3.48872C2.87756 4.52859 2.18611 5.86562 1.93854 7.31523C1.69096 8.76485 1.89946 10.2556 2.53527 11.5816C2.24087 13.3775 2.37818 15.2176 2.93584 16.9498C3.49351 18.6821 4.45551 20.2567 5.74231 21.5435C7.02911 22.8303 8.60373 23.7923 10.336 24.35C12.0682 24.9076 13.9084 25.045 15.7042 24.7506C17.0303 25.3864 18.521 25.5949 19.9706 25.3473C21.4202 25.0997 22.7572 24.4083 23.7971 23.3684C24.837 22.3285 25.5284 20.9915 25.776 19.5419C26.0236 18.0923 25.8151 16.6015 25.1793 15.2755L25.1804 15.2766ZM18.7751 23.2643C17.9459 23.2639 17.1302 23.0542 16.4036 22.6545C16.1782 22.5303 15.9163 22.4893 15.6638 22.5386C14.3169 22.8072 12.9272 22.7736 11.5949 22.4401C10.2626 22.1066 9.02093 21.4815 7.95947 20.61C6.898 19.7385 6.04319 18.6423 5.45671 17.4004C4.87022 16.1585 4.56668 14.802 4.56798 13.4286C4.56911 12.8216 4.62913 12.2163 4.74721 11.621C4.79665 11.3684 4.75564 11.1065 4.63137 10.8811C4.11822 9.9478 3.92194 8.87313 4.07202 7.81869C4.22211 6.76425 4.71046 5.78703 5.46364 5.03397C6.21682 4.28092 7.19412 3.79273 8.24859 3.64281C9.30305 3.4929 10.3777 3.68936 11.3109 4.20266C11.5365 4.32746 11.7989 4.36849 12.0519 4.3185C13.3987 4.05005 14.7882 4.08384 16.1204 4.41743C17.4526 4.75103 18.6941 5.37611 19.7554 6.24759C20.8168 7.11908 21.6715 8.21524 22.2579 9.45703C22.8443 10.6988 23.1478 12.0553 23.1466 13.4286C23.1454 14.0355 23.0854 14.6408 22.9673 15.2361C22.9179 15.4887 22.9589 15.7506 23.0832 15.976C23.4954 16.7247 23.7054 17.568 23.6923 18.4226C23.6793 19.2772 23.4437 20.1136 23.0088 20.8494C22.5739 21.5852 21.9546 22.1949 21.2122 22.6183C20.4698 23.0418 19.6298 23.2644 18.7751 23.2643Z" fill="#111111"/>
</svg>
