<svg width="27" height="27" viewBox="0 0 27 27" fill="none" xmlns="http://www.w3.org/2000/svg">
<path d="M19.3821 10.149C18.4039 10.1488 17.4408 10.391 16.579 10.8539C16.5003 10.6466 16.3604 10.4681 16.1779 10.3422C15.9953 10.2163 15.7789 10.1489 15.5571 10.149H11.1857C10.8959 10.149 10.6179 10.2641 10.413 10.469C10.208 10.674 10.0929 10.952 10.0929 11.2418V24.3561C10.0929 24.6459 10.208 24.9239 10.413 25.1289C10.6179 25.3338 10.8959 25.449 11.1857 25.449H15.5571C15.847 25.449 16.125 25.3338 16.3299 25.1289C16.5349 24.9239 16.65 24.6459 16.65 24.3561V18.3454C16.65 18.0555 16.7651 17.7776 16.9701 17.5726C17.175 17.3677 17.453 17.2525 17.7429 17.2525C18.0327 17.2525 18.3107 17.3677 18.5156 17.5726C18.7206 17.7776 18.8357 18.0555 18.8357 18.3454V24.3561C18.8357 24.6459 18.9509 24.9239 19.1558 25.1289C19.3608 25.3338 19.6387 25.449 19.9286 25.449H24.3C24.5898 25.449 24.8678 25.3338 25.0728 25.1289C25.2777 24.9239 25.3929 24.6459 25.3929 24.3561V16.1597C25.3908 14.5662 24.7569 13.0385 23.6301 11.9117C22.5033 10.7849 20.9757 10.151 19.3821 10.149ZM23.2071 23.2632H21.0214V18.3454C21.0214 17.4759 20.676 16.6419 20.0612 16.0271C19.4463 15.4122 18.6124 15.0668 17.7429 15.0668C16.8733 15.0668 16.0394 15.4122 15.4246 16.0271C14.8097 16.6419 14.4643 17.4759 14.4643 18.3454V23.2632H12.2786V12.3347H14.4643V13.103C14.4642 13.3295 14.5345 13.5504 14.6654 13.7353C14.7964 13.9201 14.9815 14.0597 15.1953 14.1347C15.409 14.2097 15.6408 14.2164 15.8585 14.1539C16.0763 14.0915 16.2692 13.9629 16.4107 13.786C16.9013 13.1632 17.5741 12.7091 18.3353 12.4872C19.0964 12.2652 19.9079 12.2865 20.6563 12.548C21.4048 12.8096 22.0529 13.2983 22.5102 13.946C22.9675 14.5936 23.2112 15.3679 23.2071 16.1608V23.2632ZM7.90715 10.149H3.53572C3.24587 10.149 2.9679 10.2641 2.76295 10.469C2.558 10.674 2.44286 10.952 2.44286 11.2418V24.3561C2.44286 24.6459 2.558 24.9239 2.76295 25.1289C2.9679 25.3338 3.24587 25.449 3.53572 25.449H7.90715C8.19699 25.449 8.47496 25.3338 8.67991 25.1289C8.88486 24.9239 9 24.6459 9 24.3561V11.2418C9 10.952 8.88486 10.674 8.67991 10.469C8.47496 10.2641 8.19699 10.149 7.90715 10.149ZM6.81429 23.2632H4.62857V12.3347H6.81429V23.2632ZM5.73782 1.99952C5.25925 1.97036 4.77975 2.03891 4.32852 2.201C3.87729 2.36308 3.46377 2.61531 3.11314 2.94233C2.76251 3.26934 2.4821 3.6643 2.28899 4.10315C2.09588 4.542 1.99412 5.01556 1.98988 5.495C1.98565 5.97444 2.07904 6.44973 2.26437 6.89192C2.4497 7.33411 2.7231 7.73395 3.0679 8.06711C3.4127 8.40026 3.82171 8.65975 4.27001 8.82977C4.71831 8.9998 5.19652 9.07681 5.67553 9.0561H5.70613C6.18497 9.08346 6.66437 9.01303 7.11512 8.84912C7.56586 8.68521 7.97852 8.43125 8.32794 8.1027C8.67736 7.77415 8.95623 7.37791 9.14756 6.9381C9.33889 6.49829 9.43867 6.02413 9.44082 5.54451C9.44298 5.06489 9.34746 4.58986 9.16009 4.14835C8.97272 3.70684 8.69742 3.3081 8.35096 2.97643C8.00451 2.64476 7.59415 2.3871 7.14489 2.21914C6.69564 2.05119 6.21689 1.97647 5.73782 1.99952ZM5.70613 6.87039H5.67553C5.48651 6.89346 5.29475 6.87585 5.1131 6.81873C4.93144 6.76161 4.76411 6.66631 4.62231 6.53921C4.48052 6.41211 4.36754 6.25616 4.29096 6.08181C4.21439 5.90747 4.17598 5.71876 4.17832 5.52836C4.17832 4.71199 4.79032 4.18524 5.73782 4.18524C5.92865 4.16012 6.12264 4.17615 6.30676 4.23223C6.49088 4.28832 6.66085 4.38316 6.80527 4.51039C6.94969 4.63763 7.0652 4.7943 7.14404 4.96988C7.22288 5.14546 7.26323 5.33589 7.26236 5.52836C7.26236 6.34363 6.65036 6.87039 5.70504 6.87039H5.70613Z" fill="#111111"/>
</svg>
